PathFileType	4	(X/Y/Z)	C:/Users/beibeiliu/ov580/test_trc/User3\sequence.4_training_dense_left.trc
DataRate	CameraRate	NumFrames	NumMarkers	Units	OrigDataRate	OrigDataStartFrame	OrigNumFrames
120	120	19	19	mm	120	105	209
Frame#	Time	ThumbCMC			ThumbMCP			ThumbIP			ThumbTip			IndexMCP			IndexPIP			IndexTip			MiddleMCP			MiddlePIP			MiddleTip			RingMCP			RingPIP			RingTip			PinkyMCP			PinkyPIP			PinkyTip			BackHand1			BackHand2			BackHand3	
		X0	Y0	Z0	X1	Y1	Z1	X2	Y2	Z2	X3	Y3	Z3	X4	Y4	Z4	X5	Y5	Z5	X6	Y6	Z6	X7	Y7	Z7	X8	Y8	Z8	X9	Y9	Z9	X10	Y10	Z10	X11	Y11	Z11	X12	Y12	Z12	X13	Y13	Z13	X14	Y14	Z14	X15	Y15	Z15	X16	Y16	Z16	X17	Y17	Z17	X18	Y18	Z18	
104	0.866667	-149.169	3.25577	36.4144	-120.223	8.46622	25.0442	-92.973	15.6343	15.8092	-71.0341	18.9572	6.80609	-109.212	-36.1724	-22.8463	-85.1336	-48.5905	-33.4545	-62.2803	-61.7275	-40.0035	-118.238	-60.4033	-24.8357	-93.913	-69.0446	-36.2664	-63.5186	-82.8616	-44.4321	-127.977	-78.118	-15.5093	-111.064	-88.3016	-22.8918	-85.8431	-105.107	-27.2183	-144.91	-87.382	5.79353	-126.384	-103.249	-0.475289	-111.991	-122.754	-2.36532	-174.093	-51.6139	5.75103	-197.076	-38.9844	26.5575	-166.672	-13.5795	13.838	
105	0.875	-152.135	6.9148	30.741	-125.949	16.8173	23.7162	-99.6273	21.3996	11.2744	-82.5342	29.3552	7.59197	-109.777	-26.0305	-24.0957	-88.7458	-36.8011	-34.0007	-60.3574	-45.1786	-42.6522	-114.876	-47.8463	-26.2277	-91.5403	-56.7906	-36.4026	-60.309	-66.0156	-44.9883	-127.019	-67.7384	-12.3449	-101.629	-79.4948	-24.1117	-76.4575	-94.1026	-28.0426	-138.06	-85.9638	7.43388	-120.46	-98.5411	1.97184	-100.694	-109.403	-0.404574	-170.63	-45.7521	6.69567	-194.11	-36.8678	25.8394	-168.208	-16.4066	9.95	
106	0.883333	-156.805	17.6773	27.9284	-132.124	28.9262	21.1194	-105.002	34.1624	7.28493	-84.2894	41.775	-1.11215	-109.365	-19.0362	-28.5127	-86.8991	-23.9974	-38.6722	-62.2105	-30.7982	-44.3229	-111.694	-42.4481	-29.6385	-88.3076	-46.0765	-38.02	-56.5352	-54.5605	-46.5012	-122.471	-60.024	-13.471	-99.6727	-71.6592	-22.1226	-74.1956	-81.5099	-26.0994	-128.839	-77.8106	4.9125	-112.773	-92.7514	4.04308	-87.8431	-104.039	3.62708	-167.131	-46.8118	6.82053	-192.704	-37.2402	26.9132	-171.715	-8.44969	8.74638	
107	0.891667	-162.6	19.7638	25.9861	-135.412	33.3978	12.9386	-113.68	42.96	3.56256	-94.6212	54.3239	-5.59354	-114.66	-8.86149	-30.1682	-89.5627	-13.4337	-41.2412	-63.5264	-18.2097	-46.8307	-110.578	-34.5488	-30.8259	-84.9768	-34.886	-41.6185	-57.7048	-38.4333	-47.6843	-117.621	-54.89	-14.4306	-96.7111	-64.36	-23.077	-67.9429	-66.6622	-29.0184	-125.082	-70.3939	5.90207	-105.619	-79.7927	3.42079	-80.8554	-87.4747	2.97142	-165.686	-45.1612	6.93847	-190.141	-36.9795	26.6359	-174.717	-8.25346	4.14565	
108	0.9	-168.767	23.432	22.5778	-143.834	36.921	10.8611	-122.706	52.4928	-1.2989	-106.341	62.847	-7.37384	-117.596	-2.2785	-32.9164	-92.7511	-3.28877	-44.4215	-64.6658	-1.04575	-51.6623	-111.719	-24.8084	-33.6078	-84.5953	-24.981	-44.1691	-55.1047	-22.6371	-51.7515	-113.787	-49.2055	-16.6953	-94.0942	-55.3393	-24.3883	-64.381	-56.1517	-29.0521	-120.319	-63.3992	7.22117	-97.8712	-73.0694	3.84937	-77.6569	-75.8973	0.73178	-164.685	-39.8542	5.57308	-188.281	-36.3915	23.5229	-174.652	-8.07051	4.2078	
109	0.908333	-172.175	25.1881	19.4384	-153.574	46.3756	8.11921	-131.352	57.856	-3.20627	-114.474	71.0244	-13.8487	-119.06	2.22983	-33.9242	-98.7734	6.35435	-44.8049	-73.9514	10.1409	-52.5679	-117.031	-18.8039	-31.0223	-89.0867	-16.0678	-46.0242	-60.7098	-14.495	-52.0887	-115.221	-40.538	-16.5109	-89.7706	-44.3673	-26.0302	-65.9884	-46.4539	-29.0655	-117.243	-57.4345	7.42961	-95.2327	-59.9681	1.81445	-72.74	-66.8036	2.41634	-166.079	-37.464	8.85927	-190.541	-34.8211	24.861	-181.212	-4.97992	4.24892	
110	0.916667	-181.176	29.1322	20.4184	-159.587	49.5702	3.9426	-139.566	61.9265	-8.63985	-124.466	72.8654	-18.698	-125.108	7.68455	-35.3474	-99.7336	10.908	-47.5084	-79.4916	17.1165	-55.7955	-117.364	-13.5082	-34.3208	-91.5982	-11.682	-46.8979	-59.7889	-4.11581	-57.2363	-116.549	-33.3338	-17.2758	-92.794	-36.3313	-26.1302	-65.2888	-37.2503	-30.6765	-117.366	-48.3548	6.54958	-95.2819	-51.7715	3.16477	-72.6095	-53.0454	2.27416	-166.147	-36.1098	9.12402	-190.103	-35.3329	26.8863	-184.41	-3.38926	3.19286	
111	0.925	-185.925	27.7662	17.494	-170.762	47.385	5.48581	-152.85	63.7825	-11.4645	-140.51	78.5835	-21.7976	-130.522	11.2259	-37.7749	-108.545	15.6957	-50.5782	-82.5016	23.3777	-59.3243	-121.591	-9.6571	-37.1318	-97.3481	-7.36432	-47.6142	-65.618	1.15893	-59.07	-115.972	-30.4927	-15.9094	-93.2202	-31.7419	-25.7532	-67.0102	-28.2615	-31.6545	-118.671	-44.7967	9.68955	-96.0947	-46.6784	4.49259	-67.9598	-46.3656	1.24662	-163.378	-33.0408	5.14623	-189.539	-33.5093	26.4406	-186.442	-6.98072	5.41367	
112	0.933333	-194.89	27.745	15.555	-178.751	48.0287	-0.911339	-163.496	63.9743	-16.8181	-152.375	80.8052	-28.7941	-137.863	12.9931	-40.4312	-115.157	22.9529	-56.4076	-90.0554	30.1916	-65.8886	-125.619	-12.0099	-34.5532	-104.872	-1.51855	-51.3204	-76.2763	8.02229	-62.8263	-116.52	-26.1131	-18.033	-95.4636	-25.1649	-27.6021	-70.2878	-18.8764	-35.2592	-114.19	-37.3244	6.41611	-96.9357	-35.5223	2.24975	-70.0139	-33.1179	-1.88549	-165.981	-34.3185	9.95488	-187.257	-34.674	26.7432	-188.93	-9.1642	2.12887	
113	0.941667	-199.248	25.7457	10.4235	-189.492	44.9443	-3.25427	-175.455	64.6252	-22.2787	-164.681	79.9808	-35.8489	-144.73	12.3566	-42.691	-122.311	22.7936	-61.0617	-101.528	33.1635	-72.6329	-125.668	-10.6319	-39.7601	-110.075	-0.222002	-55.0733	-77.4804	11.3533	-69.0387	-118.746	-22.8282	-20.9571	-98.8792	-19.3956	-30.6441	-69.869	-14.1641	-39.6933	-117.196	-32.8538	7.15207	-92.937	-31.5024	0.0772424	-69.3862	-27.1994	-5.03567	-166.412	-31.8372	5.88977	-186.704	-38.5704	30.4193	-193.711	-10.5163	3.79331	
114	0.95	-205.132	19.9286	12.4596	-193.782	42.8042	-10.0951	-183.029	61.1509	-29.2832	-174.23	75.5348	-39.614	-152.369	10.281	-48.364	-132.578	22.3225	-66.0285	-113.491	29.4707	-76.8625	-136.183	-8.01168	-43.0765	-111.309	0.106011	-60.9923	-92.1819	12.3467	-75.4126	-120.672	-23.385	-23.5144	-103.616	-18.3939	-34.1029	-78.7588	-11.1096	-45.1301	-121.908	-28.813	3.55031	-99.7398	-26.2276	-5.84565	-75.0126	-22.8922	-9.57768	-168.343	-33.1878	10.4561	-183.603	-38.7012	29.3573	-195.662	-16.2074	3.86612	
115	0.958333	-207.442	17.7178	8.12168	-202.261	38.663	-9.04504	-193.953	60.1498	-33.55	-186.247	73.2208	-46.1833	-160.926	7.6202	-52.1267	-141.936	19.4447	-73.2908	-126.918	29.6172	-85.6544	-139.846	-12.3073	-46.8839	-117.845	-2.82026	-66.4813	-100.547	11.6053	-82.5005	-131.063	-21.3175	-26.7961	-105.733	-17.303	-43.9327	-84.652	-8.29806	-54.0118	-121.252	-29.1708	-2.57272	-101.063	-25.9668	-8.69731	-79.4642	-18.3498	-20.4153	-168.624	-33.9681	6.48097	-187.744	-37.9665	27.6746	-200.28	-14.0618	-0.394164	
116	0.966667	-214.861	15.2166	8.23822	-208.387	37.2928	-16.896	-204.425	55.5879	-35.0558	-194.329	68.794	-52.4989	-167.697	3.26866	-54.8098	-152.394	11.763	-75.4004	-135.447	25.1117	-93.2291	-149.025	-16.1216	-50.1119	-131.482	-5.86473	-74.0698	-107.298	6.44353	-90.429	-135.838	-24.7022	-30.6224	-114.891	-19.5343	-50.1121	-92.1059	-12.8337	-61.2187	-126.962	-28.5217	-8.95397	-107.071	-27.9249	-15.0066	-85.0417	-22.4879	-25.8932	-175.78	-35.7094	1.2767	-188.964	-42.2746	27.5962	-206.468	-18.9684	0.0775656	
117	0.975	-221.471	13.6738	5.81696	-219.204	35.4875	-19.854	-213.405	50.3052	-38.5602	-206.218	63.739	-55.3572	-175.435	-2.61417	-61.2758	-163.575	8.67834	-83.9266	-146.194	19.5584	-100.748	-158.42	-20.8713	-54.6654	-140.582	-13.8161	-76.744	-119.841	-1.16834	-96.663	-144.96	-26.1729	-38.4759	-127.838	-24.088	-54.5696	-102.364	-15.7286	-70.3262	-133.874	-32.5121	-10.2132	-113.268	-30.008	-23.1358	-93.4631	-25.1037	-37.2111	-178.653	-38.2604	-1.68249	-197.049	-39.6425	27.4035	-207.685	-23.3071	-1.48104	
118	0.983333	-224.696	8.95966	2.01584	-224.796	29.8296	-23.6026	-219.729	44.0628	-44.8783	-219.719	61.3592	-61.2863	-188.789	-7.44972	-66.0013	-175.489	1.99296	-90.3389	-159.707	11.535	-106.293	-170.324	-24.7755	-60.3084	-155.938	-18.5225	-84.2161	-132.998	-6.96106	-107.007	-149.846	-34.0998	-44.3145	-134.97	-32.3718	-60.4154	-112.167	-23.547	-80.2421	-141.531	-36.2761	-17.1471	-123.38	-35.9037	-29.5058	-104.874	-30.0698	-46.494	-185.661	-43.609	-1.00663	-200.082	-44.293	26.0532	-218.506	-23.8737	-1.62086	
119	0.991667	-231.091	5.96596	-0.985822	-234.58	26.24	-26.4014	-231.357	41.2689	-50.2642	-227.154	55.0196	-67.0497	-201.572	-12.8554	-66.9868	-190.06	-6.36669	-92.6559	-173.235	3.64518	-113.695	-179.73	-33.3573	-65.6889	-165.738	-27.1362	-92.8611	-146.695	-15.8886	-117.436	-162.933	-40.7711	-49.3201	-148.542	-38.3583	-69.9103	-127.037	-32.9884	-85.9187	-150.734	-41.3992	-25.0734	-132.126	-41.1324	-38.2679	-115.825	-35.0534	-56.474	-192.6	-48.09	-7.29277	-204.009	-47.7493	22.2391	-224.041	-30.3988	-2.1936	
120	1	-242.372	3.76336	-1.71436	-240.126	19.5994	-24.6169	-238.162	34.9416	-51.1657	-236.705	47.0272	-66.7399	-211.009	-21.9696	-73.1855	-201.732	-15.9923	-95.3569	-190.363	-6.97284	-118.213	-193.058	-40.2996	-65.921	-181.27	-35.0522	-96.2294	-164.082	-26.9107	-119.542	-178.55	-45.8185	-50.6518	-162.7	-46.6524	-72.3388	-139.482	-42.1271	-94.515	-161.599	-47.0875	-33.0012	-144.639	-47.2342	-48.8295	-129.787	-46.9263	-59.8382	-203.078	-52.1264	-5.03343	-212.106	-50.2529	21.7297	-234.17	-31.5433	-8.72911	
121	1.00833	-250.671	0.783179	-4.92983	-249.65	16.071	-26.4201	-249.741	28.8929	-54.186	-247.939	41.1511	-76.5176	-221.752	-30.8835	-74.1683	-214.482	-26.5647	-98.4508	-199.647	-19.6758	-123.594	-204.859	-48.5669	-73.0856	-198.759	-44.532	-97.0754	-179.761	-40.8835	-123.409	-185.843	-55.6562	-53.049	-171.396	-57.7643	-75.5288	-154.024	-53.4903	-97.319	-172.347	-56.3568	-31.8701	-156.131	-58.3973	-48.228	-139.737	-57.2506	-64.2443	-212.886	-55.9045	-10.3306	-221.219	-53.6579	22.2647	-243.678	-37.4692	-6.35093	
122	1.01667	-253.662	-4.98841	-4.07872	-256.255	9.69192	-31.9517	-258.799	24.7154	-60.3219	-256.4	33.5256	-79.5195	-234.089	-39.3372	-77.7254	-228.036	-36.1247	-100.037	-218.67	-30.3774	-123.846	-217.781	-58.058	-73.0981	-210.071	-55.8757	-100.511	-195.395	-50.4417	-130.436	-196.79	-65.7353	-57.5322	-183.867	-69.5094	-79.5209	-167.623	-66.6282	-99.1601	-180.337	-67.5223	-37.89	-168.216	-68.8508	-51.5828	-153.553	-67.3899	-71.0895	-220.145	-63.612	-11.3852	-230.495	-58.9687	20.4699	-252.322	-39.5209	-7.42565	
